<svg width="17" height="17" viewBox="0 0 17 17" fill="none" xmlns="http://www.w3.org/2000/svg">
<path fill-rule="evenodd" clip-rule="evenodd" d="M8.5 17C13.1944 17 17 13.1944 17 8.5C17 3.80558 13.1944 0 8.5 0C3.80558 0 0 3.80558 0 8.5C0 13.1944 3.80558 17 8.5 17ZM13.1533 5.53084C13.5253 4.97284 13.3745 4.21892 12.8165 3.84693C12.2585 3.47493 11.5046 3.62571 11.1326 4.18371L7.20994 10.0676L5.8157 8.27504C5.40397 7.74567 4.64106 7.65031 4.1117 8.06204C3.58233 8.47377 3.48697 9.23667 3.8987 9.76604L6.32727 12.8885C6.56691 13.1966 6.94004 13.3707 7.33011 13.3565C7.72017 13.3422 8.0796 13.1413 8.29612 12.8166L13.1533 5.53084Z" fill="white"/>
</svg>
